<svg width="46" height="59" viewBox="0 0 46 59" fill="none" xmlns="http://www.w3.org/2000/svg">
<path d="M29.774 50.9798C29.774 52.0844 28.8785 52.9798 27.774 52.9798C26.6694 52.9798 25.774 52.0844 25.774 50.9798L29.774 50.9798ZM25.774 50.9798L25.774 10.268L29.774 10.268L29.774 50.9798L25.774 50.9798Z" fill="#E8E8E8"/>
<circle cx="35.5856" cy="10.5695" r="7.71994" transform="rotate(-90 35.5856 10.5695)" stroke="#E8E8E8" stroke-width="4.2"/>
<path d="M43.8824 49.0821C44.406 50.0547 44.042 51.2676 43.0694 51.7912C42.0968 52.3148 40.884 51.9508 40.3604 50.9782L43.8824 49.0821ZM40.3604 50.9782L19.1166 11.5175L22.6386 9.6214L43.8824 49.0821L40.3604 50.9782Z" fill="#E8E8E8"/>
<circle cx="9.81994" cy="9.81994" r="7.71994" transform="matrix(-0.438371 -0.898794 -0.898794 0.438371 27.0433 18.7194)" stroke="#E8E8E8" stroke-width="4.2"/>
</svg>
